<?xml version="1.0" encoding="UTF-8"?>
<svg id="Capa_2" data-name="Capa 2" xmlns="http://www.w3.org/2000/svg" viewBox="0 0 496.94 150.96">
  <defs>
    <style>
      .cls-1, .cls-2 {
        letter-spacing: 0em;
      }

      .cls-1, .cls-3 {
        fill: #565f64;
        font-family: FuturaCyrillic-Demi, 'Futura PT';
        font-size: 73px;
        font-weight: 300;
      }

      .cls-4 {
        fill: #1996d4;
      }

      .cls-5 {
        fill: #dbe0e2;
      }

      .cls-6 {
        letter-spacing: -.02em;
      }

      .cls-7 {
        letter-spacing: 0em;
      }

      .cls-8 {
        fill: none;
        stroke: #56636b;
        stroke-miterlimit: 10;
        stroke-width: 3px;
      }
    </style>
  </defs>
  <g id="Capa_1-2" data-name="Capa 1">
    <g>
      <g>
        <path class="cls-4" d="M47.11.45c6.17-2.15,12.67,3.74,9.94,9.91-7.61,7.59-15.95,14.64-23.18,22.6C13.32,55.6,12.7,70.97,15.19,101.62c3.77,46.34,62.44,44.25,68.16,7.87.6-3.85,1.39-17.97-.58-20.33-2.57-3.08-6.64-2.79-9.53-9.19-15.12-33.46,43.68-43.06,38.57-5.47-1.43,10.5-12.45,13.41-13.26,15.85-1.39,4.19.35,15.59-.43,21.41-5.89,43.95-71.42,54.47-91.82,13.31C-1.21,109.94-1.3,73.01,2.34,56.56,7.5,33.22,30.5,16.05,47.11.45Z"/>
        <path class="cls-5" d="M90.82,63.84c5.07-.78,10.11,5.61,5.51,10.77-8.09,9.08-17.16-8.99-5.51-10.77Z"/>
      </g>
      <g>
        <text class="cls-1" transform="translate(133.09 93.01)"><tspan x="0" y="0">Hook</tspan></text>
        <text class="cls-3" transform="translate(336.34 93.01)"><tspan class="cls-2" x="0" y="0">S</tspan><tspan class="cls-6" x="39.35" y="0">h</tspan><tspan class="cls-7" x="77.16" y="0">op</tspan></text>
        <line class="cls-8" x1="320.81" y1="115.94" x2="319.81" y2="28.94"/>
      </g>
    </g>
  </g>
</svg>